<?xml version="1.0" encoding="UTF-8" standalone="no"?>
<svg
   version="1.1"
   width="101px"
   height="109px"
   id="svg24"
   viewBox="0 0 101.79713 109.36312"
   sodipodi:docname="part1.svg"
   inkscape:version="1.2.1 (9c6d41e410, 2022-07-14)"
   xmlns:inkscape="http://www.inkscape.org/namespaces/inkscape"
   xmlns:sodipodi="http://sodipodi.sourceforge.net/DTD/sodipodi-0.dtd"
   xmlns="http://www.w3.org/2000/svg"
   xmlns:svg="http://www.w3.org/2000/svg">
  <!-- <defs
     id="defs28" />
  <sodipodi:namedview
     id="namedview26"
     pagecolor="#ffffff"
     bordercolor="#000000"
     borderopacity="0.25"
     inkscape:showpageshadow="2"
     inkscape:pageopacity="0.0"
     inkscape:pagecheckerboard="0"
     inkscape:deskcolor="#d1d1d1"
     inkscape:document-units="px"
     showgrid="false"
     inkscape:zoom="3.0841283"
     inkscape:cx="133.7493"
     inkscape:cy="163.09309"
     inkscape:window-width="2560"
     inkscape:window-height="1494"
     inkscape:window-x="-11"
     inkscape:window-y="-11"
     inkscape:window-maximized="1"
     inkscape:current-layer="svg24" /> -->
  <g
     id="Layer1000"
     transform="translate(-244.17555,-213.91153)">
    <path
       d="m 295.6167,322.3157 c 28.1456,-8.1108 42.7761,-35.7411 44.4986,-51.6584 1.6755,-15.4827 -1.0619,-35.1674 -1.0619,-35.1674 -29.3864,-2.6436 -37.9267,-12.3092 -37.9267,-12.3092 0,0 -1.4038,1.843 -5.51,4.1271 -4.1063,-2.2841 -5.5101,-4.1271 -5.5101,-4.1271 0,0 -8.5402,9.6656 -37.9266,12.3092 0,0 -2.7374,19.6847 -1.0619,35.1674 1.7225,15.9173 16.353,43.5476 44.4986,51.6584 z"
       style="fill:#9b9d9f;fill-rule:evenodd"
       id="path4" />
    <path
       d="m 259.0676,230.9461 c 0,0 -2.7383,24.7907 -1.0619,40.274 1.7229,15.9178 17.914,38.8541 37.611,43.3299 18.9056,-5.3709 36.0801,-27.7291 37.6815,-44.0144 1.5261,-15.5182 -1.1324,-39.5895 -1.1324,-39.5895 -29.3864,-2.6435 -36.5491,-12.0614 -36.5491,-12.0614 0,0 -7.1627,9.4179 -36.5491,12.0614 z"
       style="fill:#9b9d9f;fill-rule:evenodd"
       id="path6" />
    <path
       d="m 291.0795,275.9333 v 9.558 c 0,0 29.4616,-1.7699 34.9291,-12.2723 3.9728,-7.2768 -9.722,-7.8035 -9.722,-7.8035 0,0 3.3498,0.8019 1.0684,3.6735 -2.7141,3.894 -26.2755,6.8443 -26.2755,6.8443 z m -24.6288,6.9864 c 1.8612,3.6068 4.2335,7.1964 7.0075,10.5074 l 21.2169,-42.5147 1.8914,8.1176 c 0,0 7.7087,-0.7734 10.816,-3.055 l -5.5356,-19.485 h -11.5852 z m 38.8075,20.1005 c 4.0927,-2.4156 7.9453,-5.5876 11.353,-9.1742 l -2.0883,-11.108 c 0,0 -5.2709,2.4781 -11.8095,3.4025 z m -12.711,-31.3021 c 0,0 36.6453,-5.2392 35.0706,-18.0476 -1.2821,-6.4376 -12.994,-5.0579 -12.994,-5.0579 -3.7759,-1.8096 -4.1521,-4.4223 -4.1521,-4.4223 0,0 -0.2144,2.6127 -3.9904,4.4223 3.776,1.8094 4.0712,4.4224 4.0712,4.4224 0,0 0.2954,-2.613 4.0713,-4.4224 0,0 4.4124,1.3224 4.1866,3.2086 -0.5509,6.0967 -26.2632,9.888 -26.2632,9.888 z"
       style="fill:#9b9d9f;fill-rule:evenodd"
       id="path8" />
    <path
       d="m 295.6629,318.9121 c 28.1456,-8.1107 42.7761,-35.7411 44.4986,-51.6583 1.6755,-15.4828 -1.0619,-35.1675 -1.0619,-35.1675 -29.3864,-2.6435 -37.9267,-12.3092 -37.9267,-12.3092 0,0 -1.4038,1.8431 -5.51,4.1271 -4.1062,-2.284 -5.5101,-4.1271 -5.5101,-4.1271 0,0 -8.5402,9.6657 -37.9266,12.3092 0,0 -2.7374,19.6847 -1.0619,35.1675 1.7225,15.9172 16.353,43.5476 44.4986,51.6583 z"
       style="fill:#008bd0;fill-rule:evenodd"
       id="path10" />
    <path
       d="m 259.1138,227.5426 c 0,0 -2.7382,24.7906 -1.0618,40.274 1.7228,15.9178 17.9139,38.8541 37.6109,43.3298 18.9056,-5.3708 36.0801,-27.729 37.6815,-44.0144 1.5261,-15.5182 -1.1324,-39.5894 -1.1324,-39.5894 -29.3864,-2.6436 -36.5491,-12.0614 -36.5491,-12.0614 0,0 -7.1627,9.4178 -36.5491,12.0614 z"
       style="fill:#004987;fill-rule:evenodd"
       id="path12" />
    <path
       d="m 291.1257,272.5297 v 9.558 c 0,0 29.4616,-1.7699 34.9291,-12.2723 3.9728,-7.2767 -9.722,-7.8035 -9.722,-7.8035 0,0 3.3498,0.8019 1.0684,3.6735 -2.7141,3.894 -26.2755,6.8443 -26.2755,6.8443 z m -24.6288,6.9864 c 1.8612,3.6068 4.2335,7.1964 7.0076,10.5075 l 21.2168,-42.5148 1.8914,8.1176 c 0,0 7.7087,-0.7734 10.816,-3.055 l -5.5356,-19.485 h -11.5852 z m 38.8075,20.1005 c 4.0927,-2.4155 7.9453,-5.5876 11.353,-9.1742 l -2.0883,-11.108 c 0,0 -5.2709,2.4781 -11.8095,3.4025 z m -12.711,-31.3021 c 0,0 36.6453,-5.2392 35.0706,-18.0476 -1.2821,-6.4376 -12.994,-5.0578 -12.994,-5.0578 -3.7759,-1.8096 -4.152,-4.4224 -4.152,-4.4224 0,0 -0.2145,2.6128 -3.9905,4.4224 3.776,1.8094 4.0712,4.4223 4.0712,4.4223 0,0 0.2954,-2.6129 4.0713,-4.4223 0,0 4.4125,1.3224 4.1866,3.2085 -0.5509,6.0968 -26.2632,9.8881 -26.2632,9.8881 z"
       style="fill:#ffffff;fill-rule:evenodd"
       id="path14" />
    <g
       id="Layer1001" />
  </g>
</svg>
