<?xml version="1.0" encoding="UTF-8" standalone="no"?>
<svg
   version="1.1"
   width="86.765762"
   height="66.009232"
   id="svg24"
   viewBox="0 0 87.45055 66.229133"
   sodipodi:docname="part1_white.svg"
   inkscape:version="1.2.1 (9c6d41e410, 2022-07-14)"
   xmlns:inkscape="http://www.inkscape.org/namespaces/inkscape"
   xmlns:sodipodi="http://sodipodi.sourceforge.net/DTD/sodipodi-0.dtd"
   xmlns="http://www.w3.org/2000/svg"
   xmlns:svg="http://www.w3.org/2000/svg">
  <defs
     id="defs12" />
  <sodipodi:namedview
     id="namedview10"
     pagecolor="#ffffff"
     bordercolor="#000000"
     borderopacity="0.25"
     inkscape:showpageshadow="2"
     inkscape:pageopacity="0.0"
     inkscape:pagecheckerboard="0"
     inkscape:deskcolor="#d1d1d1"
     showgrid="false"
     inkscape:zoom="2.1651376"
     inkscape:cx="42.260593"
     inkscape:cy="35.101695"
     inkscape:window-width="2560"
     inkscape:window-height="1494"
     inkscape:window-x="-11"
     inkscape:window-y="-11"
     inkscape:window-maximized="1"
     inkscape:current-layer="svg24" />
  <!-- <defs
     id="defs28" />
  <sodipodi:namedview
     id="namedview26"
     pagecolor="#ffffff"
     bordercolor="#000000"
     borderopacity="0.25"
     inkscape:showpageshadow="2"
     inkscape:pageopacity="0.0"
     inkscape:pagecheckerboard="0"
     inkscape:deskcolor="#d1d1d1"
     inkscape:document-units="pt"
     showgrid="false"
     inkscape:zoom="12.336513"
     inkscape:cx="81.749193"
     inkscape:cy="67.847372"
     inkscape:window-width="2560"
     inkscape:window-height="1494"
     inkscape:window-x="-11"
     inkscape:window-y="-11"
     inkscape:window-maximized="1"
     inkscape:current-layer="Layer1000" /> -->
  <g
     id="Layer1000"
     transform="translate(-252.71095,-233.33497)">
    <path
       d="m 333.2982,270.5356 c -59.4151,-37.74938 -29.70755,-18.87469 0,0 z"
       style="fill:#9b9d9f;fill-rule:evenodd"
       id="path6"
       sodipodi:nodetypes="cc" />
    <path
       d="m 340.1615,267.2538 c -63.99063,-35.56151 -31.99532,-17.78076 0,0 z"
       style="fill:#008bd0;fill-rule:evenodd"
       id="path10"
       sodipodi:nodetypes="cc" />
    <path
       d="m 258.052,267.8166 c -9.25097,-35.93671 -4.62548,-17.96836 0,0 z"
       style="fill:#004987;fill-rule:evenodd"
       id="path12"
       sodipodi:nodetypes="cc" />
    <path
       d="m 291.1257,272.5297 v 9.558 c 0,0 29.4616,-1.7699 34.9291,-12.2723 3.9728,-7.2767 -9.722,-7.8035 -9.722,-7.8035 0,0 3.3498,0.8019 1.0684,3.6735 -2.7141,3.894 -26.2755,6.8443 -26.2755,6.8443 z m -24.6288,6.9864 c 1.8612,3.6068 4.2335,7.1964 7.0076,10.5075 l 21.2168,-42.5148 1.8914,8.1176 c 0,0 7.7087,-0.7734 10.816,-3.055 l -5.5356,-19.485 h -11.5852 z m 38.8075,20.1005 c 4.0927,-2.4155 7.9453,-5.5876 11.353,-9.1742 l -2.0883,-11.108 c 0,0 -5.2709,2.4781 -11.8095,3.4025 z"
       style="fill:#ffffff;fill-rule:evenodd"
       id="path14"
       sodipodi:nodetypes="ccccccccccccccccccc"
       inkscape:highlight-color="#aaaaaa" />
    <g
       id="Layer1001" />
    <path
       d="m 316.6804,290.46863 c -48.33657,-51.0786 -24.16828,-25.5393 0,0 z m -24.064,-22.1279 c 0,0 36.6453,-5.2392 35.0706,-18.0476 -1.2821,-6.4376 -12.994,-5.0578 -12.994,-5.0578 -3.7759,-1.8096 -4.152,-4.4224 -4.152,-4.4224 0,0 -0.2145,2.6128 -3.9905,4.4224 3.776,1.8094 4.0712,4.4223 4.0712,4.4223 0,0 0.2954,-2.6129 4.0713,-4.4223 0,0 4.4125,1.3224 4.1866,3.2085 -0.5509,6.0968 -26.2632,9.8881 -26.2632,9.8881 z"
       style="fill:#00ff00;fill-rule:evenodd"
       id="path14-8"
       sodipodi:nodetypes="cccccccccccc"
       inkscape:highlight-color="#aaaaaa" />
  </g>
</svg>
