<?xml version="1.0" encoding="UTF-8" standalone="no"?>
<svg
   version="1.1"
   width="127px"
   height="40px"
   id="svg24"
   viewBox="0 0 127.33109 40.543026"
   sodipodi:docname="part2.svg"
   inkscape:version="1.2.1 (9c6d41e410, 2022-07-14)"
   xmlns:inkscape="http://www.inkscape.org/namespaces/inkscape"
   xmlns:sodipodi="http://sodipodi.sourceforge.net/DTD/sodipodi-0.dtd"
   xmlns="http://www.w3.org/2000/svg"
   xmlns:svg="http://www.w3.org/2000/svg">
  <!-- <defs
     id="defs28" />
  <sodipodi:namedview
     id="namedview26"
     pagecolor="#ffffff"
     bordercolor="#000000"
     borderopacity="0.25"
     inkscape:showpageshadow="2"
     inkscape:pageopacity="0.0"
     inkscape:pagecheckerboard="0"
     inkscape:deskcolor="#d1d1d1"
     inkscape:document-units="px"
     showgrid="false"
     inkscape:zoom="3.0841283"
     inkscape:cx="128.56145"
     inkscape:cy="9.4029811"
     inkscape:window-width="2560"
     inkscape:window-height="1494"
     inkscape:window-x="-11"
     inkscape:window-y="-11"
     inkscape:window-maximized="1"
     inkscape:current-layer="svg24" /> -->
  <g
     id="Layer1000"
     transform="translate(-230.79346,-325.00332)">
    <path
       d="m 260.4883,333.9893 h -6.5392 l -3.5558,-3.4654 h -7.5937 l -3.5558,3.4654 h -6.5392 l 6.961,-6.7802 h 13.8617 z m -27.0907,13.4399 h 10.969 v -3.0736 h -9.4623 v -3.3148 h 9.4623 v -2.8027 h -10.1251 v -3.3145 h 24.8607 v 3.3145 h -10.095 v 2.8027 h 9.5224 v 3.3148 h -9.5224 v 3.0736 h 10.8181 v 3.3148 H 233.3976 Z M 269.9504,327.42 h 8.1663 v 3.0436 h -3.4954 v 1.567 h 3.7367 v 3.0736 h -5.7558 l -2.6218,3.5861 h -4.9118 l 2.6821,-3.5861 h -2.9835 v -3.0736 h 5.2132 v -1.567 h -0.9039 l -0.2109,0.7534 h -4.0079 l 1.2957,-4.5805 h 4.0079 z m -2.8023,12.1442 h 23.1128 v 11.1798 h -23.1128 z m 18.4722,7.9254 v -1.2056 h -13.8316 v 1.2056 z m 0,-3.5258 v -1.1752 h -13.8316 v 1.1752 z m -8.4679,-8.2567 1.6273,2.9832 h -4.7009 l -1.6271,-2.9832 z m 1.8382,-8.498 12.7469,0.0604 v 11.4208 h -12.7469 z m 8.1063,8.1663 v -4.8214 h -3.4657 v 4.8214 z m 30.7066,-3.9775 h -6.9007 v 15.9409 h 12.9878 v 3.3148 H 297.282 v -3.3148 h 8.9802 v -15.9409 h -8.257 v -3.3149 h 24.4389 v 15.037 h -8.2568 v -3.3149 h 3.6162 z m 38.4511,8.4376 h -4.0076 v 4.2188 l -4.4901,2.2901 8.4977,4.3996 h -9.5224 l -4.0077,-2.0191 -3.6765,1.8082 -4.1284,0.2109 h -5.9967 l 8.3472,-4.3395 -4.4901,-2.4106 v -4.1584 h -4.0379 v -3.3149 h 4.0379 v -1.4465 h 4.6409 v 1.4465 h 10.1852 v -1.4465 h 4.6409 v 1.4465 h 4.0076 z M 329.9474,328.083 h 9.6732 l -0.3917,-1.4465 h 5.7857 l 0.3918,1.4465 h 9.6732 v 6.4789 h -4.6409 v -3.164 h -15.8504 v 3.164 h -4.6409 z m 12.4154,16.0013 5.2433,-2.6518 v -1.597 h -10.1852 v 1.6271 z"
       style="fill:#1b1918;fill-rule:evenodd"
       id="path16" />
    <g
       id="Layer1001">
      <path
         d="m 239.6319,354.4829 0.1216,8.5269 h -6.8091 l 0.3044,-8.5269 z m -1.6203,7.0773 -0.0731,-5.6276 h -2.96 l -0.2069,5.6276 z m 9.4694,-4.7628 v 0.1463 h 6.9917 v 6.0661 h -1.7782 v -4.6655 h -1.7663 v 4.6655 h -1.7784 v -4.6655 h -1.7054 l -0.1218,4.6655 h -1.7785 l 0.1585,-6.2124 z m 14.6585,0 v 0.1341 h 3.983 v 6.0783 h -1.7782 v -4.6899 h -2.2413 l -0.1219,4.6899 h -1.7785 l 0.1585,-6.2124 z m 11.6252,-2.8017 v 1.8637 h -1.7907 v -1.8637 z m -1.7907,2.9358 h 1.7907 l -0.1219,6.0783 h -1.7906 z m 13.9397,-2.4486 v 1.4497 h -4.373 l -0.1704,5.6276 h 3.2522 l -0.0487,-2.3267 h -2.0464 v -1.4493 h 3.7395 l 0.1219,5.2256 h -6.8335 l 0.2435,-8.5269 z m 12.0274,2.4364 0.1097,6.0905 h -5.8714 l 0.0853,-6.0905 h 1.7785 l -0.061,4.7018 h 2.2536 l -0.0853,-4.7018 z m 11.5279,6.0905 h -5.6885 l 0.0731,-3.9345 h 3.8126 l -0.0244,-0.8161 h -3.7882 v -1.3399 h 5.4935 z m -1.754,-1.3399 -0.0244,-1.2424 h -2.1317 l -0.0243,1.2424 z m 9.4206,-4.8969 -0.0122,0.2557 2.5946,-0.0122 v 1.3887 l -2.6189,0.0122 -0.1219,4.5924 h -1.7785 l 0.1585,-6.2368 z m 14.1835,-3.5081 v 9.7449 h -5.8714 l 0.1218,-6.0783 h 3.9711 v -3.6666 z m -1.7785,8.2953 v -3.1793 h -2.2657 l -0.0732,3.1793 z"
         style="fill:#1b1918;fill-rule:evenodd"
         id="path18" />
      <path
         d="m 347.4882,363.0098 h -1.7907 l -0.3654,-2.4485 h -3.1427 l -0.3654,2.4485 h -1.7907 l 1.2668,-8.5269 h 4.9213 z m -2.3877,-3.9954 -0.4507,-3.0818 h -1.7906 l -0.4507,3.0818 z m 10.2734,-4.5315 -0.2435,8.5269 h -1.7907 l 0.2435,-8.5269 z"
         style="fill:#008bd0;fill-rule:evenodd"
         id="path20" />
    </g>
  </g>
</svg>
