<svg xmlns="http://www.w3.org/2000/svg" width="25" height="24">
  <rect width="25" height="24" opacity="0"></rect>
  <g mask="url(#hms_mask_0)">
    <path d="M20.71 7.08Q20.47 5.69 19.4 4.75Q18.33 3.82 16.92 3.82L9.28 3.82Q9 3.41 8.53 3.16Q8.06 2.9 7.58 2.9L4.65 2.9Q3.69 2.9 2.89 3.38Q2.08 3.86 1.62 4.67Q1.15 5.47 1.15 6.41L1.15 17.54Q1.15 18.5 1.62 19.32Q2.08 20.14 2.89 20.59Q3.69 21.05 4.65 21.05L19.96 21.05Q20.9 21.05 21.7 20.58Q22.51 20.11 22.98 19.31Q23.44 18.5 23.44 17.54L23.44 10.44Q23.44 9.19 22.68 8.28Q21.91 7.37 20.71 7.08ZM11.4 7.03Q11.28 7.03 11.19 6.98Q11.11 6.94 11.04 6.84L11.04 6.84L10.29 5.54L16.92 5.54Q17.61 5.54 18.15 5.96Q18.69 6.38 18.88 7.03L11.4 7.03Z" fill="rgba(10,89,247,1)"></path>
  </g>
  <defs>
    <mask id="hms_mask_0">
      <rect width="25" height="24" fill="#ffffff"></rect>
      <path d="M23.16 13.06Q22.36 12.26 21.38 11.86Q20.4 11.45 19.32 11.45Q18.19 11.45 17.2 11.86Q16.22 12.26 15.43 13.06Q14.68 13.82 14.28 14.82Q13.87 15.82 13.87 16.9Q13.87 17.98 14.28 18.98Q14.68 19.99 15.43 20.74Q16.22 21.53 17.2 21.94Q18.19 22.34 19.32 22.34Q20.4 22.34 21.38 21.94Q22.36 21.53 23.16 20.74Q23.92 20.02 24.33 19.01Q24.74 18 24.74 16.9Q24.74 15.79 24.33 14.8Q23.92 13.8 23.16 13.06Z" fill="#000000"></path>
    </mask>
  </defs>
  <g>
    <path d="M19.32 12.74Q18.48 12.74 17.71 13.06Q16.94 13.37 16.36 13.97Q15.57 14.76 15.3 15.83Q15.02 16.9 15.3 17.95Q15.57 19.01 16.36 19.8Q16.96 20.4 17.72 20.71Q18.48 21.02 19.32 21.02Q20.11 21.02 20.88 20.71Q21.64 20.4 22.24 19.8Q23.01 19.01 23.3 17.94Q23.59 16.87 23.3 15.82Q23.01 14.76 22.24 13.97Q21.64 13.37 20.88 13.06Q20.11 12.74 19.32 12.74ZM20.04 16.37L19 15.34Q18.86 15.22 18.86 15Q18.86 14.78 19 14.62Q19.15 14.45 19.38 14.45Q19.6 14.45 19.77 14.62L21.52 16.37Q21.74 16.58 21.74 16.9Q21.74 17.04 21.69 17.17Q21.64 17.3 21.52 17.42L19.75 19.18Q19.68 19.25 19.58 19.3Q19.48 19.34 19.39 19.34Q19.17 19.34 19 19.18Q18.84 19.03 18.84 18.8Q18.84 18.58 19 18.43L20.04 17.42L17.4 17.42Q17.18 17.42 17.02 17.27Q16.87 17.11 16.87 16.9Q16.87 16.68 17.01 16.52Q17.16 16.37 17.4 16.37Z" fill="rgba(10,89,247,1)"></path>
  </g>
</svg>