<?xml version="1.0" standalone="no"?>
<svg xmlns="http://www.w3.org/2000/svg" width="24" height="24"><rect width="24" height="24" opacity="0"></rect><g><path d="M3.72 11.06Q3.41 11.4 3.43 11.83Q3.46 12.26 3.76 12.56Q4.06 12.86 4.51 12.86L8.14 12.86L8.14 19.97Q8.14 20.45 8.48 20.8Q8.83 21.14 9.31 21.14L14.69 21.14Q15.17 21.14 15.52 20.8Q15.86 20.45 15.86 19.97L15.86 12.86L19.51 12.86Q19.94 12.86 20.24 12.56Q20.54 12.26 20.57 11.83Q20.59 11.4 20.28 11.06L13.08 3.31Q12.65 2.86 12.01 2.86Q11.38 2.86 10.92 3.31L3.72 11.06Z" fill="rgba(10,89,247,1)"></path></g></svg>