<?xml version="1.0" encoding="UTF-8"?>
<svg width="25" height="24" version="1.1" xmlns="http://www.w3.org/2000/svg">
 <rect width="25" height="24" opacity="0"/>
 <g mask="url(#hms_mask_0)">
  <path d="m20.71 7.08q-0.24-1.39-1.31-2.33-1.07-0.93-2.48-0.93h-7.64q-0.28-0.41-0.75-0.66-0.47-0.26-0.95-0.26h-2.93q-0.96 0-1.76 0.48-0.81 0.48-1.27 1.29-0.47 0.8-0.47 1.74v11.13q0 0.96 0.47 1.78 0.46 0.82 1.27 1.27 0.8 0.46 1.76 0.46h15.31q0.94 0 1.74-0.47 0.81-0.47 1.28-1.27 0.46-0.81 0.46-1.77v-7.1q0-1.25-0.76-2.16-0.77-0.91-1.97-1.2zm-9.31-0.05q-0.12 0-0.21-0.05-0.08-0.04-0.15-0.14l-0.75-1.3h6.63q0.69 0 1.23 0.42t0.73 1.07h-7.48z" fill="rgba(10,89,247,1)"/>
 </g>
 <defs>
  <mask id="hms_mask_0">
   <rect width="25" height="24" fill="#fff"/>
   <path d="m23.16 13.06q-0.8-0.8-1.78-1.2-0.98-0.41-2.06-0.41-1.13 0-2.12 0.41-0.98 0.4-1.77 1.2-0.75 0.76-1.15 1.76-0.41 1-0.41 2.08t0.41 2.08q0.4 1.01 1.15 1.76 0.79 0.79 1.77 1.2 0.99 0.4 2.12 0.4 1.08 0 2.06-0.4 0.98-0.41 1.78-1.2 0.76-0.72 1.17-1.73t0.41-2.11q0-1.11-0.41-2.1-0.41-1-1.17-1.74z"/>
  </mask>
 </defs>
 <path d="m19.32 12.74q-0.84 0-1.61 0.32-0.77 0.31-1.35 0.91-0.79 0.79-1.06 1.86-0.28 1.07 0 2.12 0.27 1.06 1.06 1.85 0.6 0.6 1.36 0.91t1.6 0.31q0.79 0 1.56-0.31 0.76-0.31 1.36-0.91 0.77-0.79 1.06-1.86t0-2.12q-0.29-1.06-1.06-1.85-0.6-0.6-1.36-0.91-0.77-0.32-1.56-0.32zm0.72 3.63-1.04-1.03q-0.14-0.12-0.14-0.34t0.14-0.38q0.15-0.17 0.38-0.17 0.22 0 0.39 0.17l1.75 1.75q0.22 0.21 0.22 0.53 0 0.14-0.05 0.27t-0.17 0.25l-1.77 1.76q-0.07 0.07-0.17 0.12-0.1 0.04-0.19 0.04-0.22 0-0.39-0.16-0.16-0.15-0.16-0.38 0-0.22 0.16-0.37l1.04-1.01h-2.64q-0.22 0-0.38-0.15-0.15-0.16-0.15-0.37 0-0.22 0.14-0.38 0.15-0.15 0.39-0.15z" fill="rgba(10,89,247,1)"/>
</svg>
