<?xml version="1.0" standalone="no"?>
<svg xmlns="http://www.w3.org/2000/svg" width="24" height="24"><rect width="24" height="24" opacity="0"></rect><g><path d="M6.22 0.86Q5.31 0.86 4.54 1.33Q3.76 1.79 3.3 2.57Q2.83 3.35 2.83 4.25L2.83 19.75Q2.83 20.68 3.3 21.46Q3.76 22.23 4.54 22.68Q5.31 23.14 6.22 23.14L17.76 23.14Q18.69 23.14 19.46 22.68Q20.24 22.23 20.7 21.46Q21.17 20.68 21.17 19.75L21.17 7.2L14.81 0.86L6.22 0.86ZM7.51 12.05Q7.17 12.05 6.9 11.78Q6.62 11.52 6.62 11.15Q6.62 10.79 6.9 10.52Q7.17 10.25 7.51 10.25L11.52 10.25Q11.89 10.25 12.16 10.52Q12.43 10.79 12.43 11.15Q12.43 11.52 12.16 11.78Q11.89 12.05 11.52 12.05L7.51 12.05ZM7.51 16.44Q7.17 16.44 6.9 16.19Q6.62 15.94 6.62 15.56Q6.62 15.19 6.9 14.93Q7.17 14.66 7.51 14.66L16.49 14.66Q16.85 14.66 17.11 14.93Q17.38 15.19 17.38 15.56Q17.38 15.94 17.11 16.19Q16.85 16.44 16.49 16.44L7.51 16.44ZM15.43 7.18Q15.17 7.18 14.99 6.98Q14.81 6.79 14.81 6.5L14.81 3.31L18.67 7.18L15.43 7.18Z" fill="rgba(255,255,255,1)"></path></g></svg>