<?xml version="1.0" standalone="no"?>
<svg xmlns="http://www.w3.org/2000/svg" width="24" height="24"><rect width="24" height="24" opacity="0"></rect><g><path d="M2.76 20.02Q2.76 20.88 3.18 21.6Q3.6 22.32 4.33 22.75Q5.06 23.18 5.93 23.18L17.9 23.18Q18.77 23.18 19.5 22.75Q20.23 22.32 20.65 21.6Q21.07 20.88 21.07 20.02L21.07 14.95L19.25 16.78L19.25 20.02Q19.25 20.59 18.86 20.96Q18.48 21.34 17.9 21.34L5.93 21.34Q5.35 21.34 4.97 20.96Q4.58 20.59 4.58 20.02L4.58 4.01Q4.58 3.43 4.97 3.05Q5.35 2.66 5.93 2.66L17.9 2.66Q18.48 2.66 18.86 3.05Q19.25 3.43 19.25 4.01L19.25 10.01L21.07 8.23L21.07 4.01Q21.07 3.14 20.65 2.42Q20.23 1.7 19.5 1.27Q18.77 0.84 17.9 0.84L5.93 0.84Q5.06 0.84 4.33 1.27Q3.6 1.7 3.18 2.42Q2.76 3.14 2.76 4.01L2.76 20.02ZM16.34 8.09Q16.7 8.09 16.96 7.82Q17.21 7.56 17.21 7.2Q17.21 6.84 16.96 6.58Q16.7 6.31 16.34 6.31L7.51 6.31Q7.15 6.31 6.9 6.58Q6.65 6.84 6.65 7.2Q6.65 7.56 6.9 7.82Q7.15 8.09 7.51 8.09L16.34 8.09ZM6.65 11.35Q6.65 11.71 6.91 11.99Q7.18 12.26 7.51 12.26L16.22 12.26Q16.61 12.14 16.84 11.9Q17.06 11.66 17.18 11.28Q17.16 10.94 16.92 10.7Q16.68 10.46 16.34 10.46L7.51 10.46Q7.15 10.46 6.9 10.73Q6.65 10.99 6.65 11.35ZM6.65 15.53Q6.65 15.89 6.9 16.15Q7.15 16.42 7.51 16.42L12.89 16.42L14.59 14.62L7.51 14.62Q7.18 14.62 6.91 14.89Q6.65 15.17 6.65 15.53Z" fill="rgba(0,0,0,0.9019607843137255)"></path><path d="M12.91 19.18Q12.82 19.34 12.88 19.51Q12.94 19.68 13.1 19.75Q13.27 19.82 13.44 19.73L15.24 18.72Q15.43 18.6 15.86 18.31L14.35 16.78Q14.21 16.97 14.02 17.23L13.92 17.4L12.91 19.18ZM23.59 9.1Q23.26 8.74 22.75 8.74Q22.25 8.74 21.91 9.1L15.17 15.79Q14.98 16.01 14.83 16.2L16.46 17.81Q16.54 17.71 16.63 17.64Q16.68 17.59 16.73 17.54Q16.78 17.5 16.82 17.45L23.59 10.75Q23.93 10.39 23.93 9.91Q23.93 9.43 23.59 9.1Z" fill="rgba(0,0,0,0.9019607843137255)"></path></g></svg>