<?xml version="1.0" standalone="no"?>
<svg xmlns="http://www.w3.org/2000/svg" width="24" height="24"><rect width="24" height="24" opacity="0"></rect><g><path d="M12.05 18.53Q13.42 18.53 14.51 18.34Q15.6 18.14 16.63 17.93L16.7 17.9Q16.87 17.86 17.03 17.74Q17.18 17.62 17.26 17.45Q17.5 16.94 17.9 16.28Q18.31 15.62 18.53 15.38Q19.54 14.16 20.06 12.68Q20.59 11.21 20.59 9.65Q20.59 7.25 19.44 5.22Q18.29 3.19 16.31 1.98Q14.33 0.77 12 0.77Q9.67 0.77 7.69 1.97Q5.71 3.17 4.55 5.2Q3.38 7.22 3.38 9.62Q3.38 11.18 3.91 12.66Q4.44 14.14 5.45 15.36Q5.52 15.46 5.59 15.55Q5.86 15.94 6.23 16.49Q6.6 17.04 6.74 17.3Q6.82 17.47 6.96 17.59Q7.1 17.71 7.3 17.78L7.32 17.81Q7.63 17.88 8.34 18.06Q9.05 18.24 10.03 18.38Q11.02 18.53 12.05 18.53ZM8.09 16.06Q7.75 15.48 7.43 14.98Q7.1 14.47 6.77 14.18Q6 13.22 5.58 12.05Q5.16 10.87 5.16 9.65Q5.16 7.7 6.08 6.08Q7.01 4.46 8.57 3.52Q10.13 2.57 12 2.57Q13.87 2.57 15.42 3.53Q16.97 4.49 17.89 6.1Q18.82 7.7 18.82 9.65Q18.82 10.9 18.4 12.07Q17.98 13.25 17.18 14.21Q16.7 14.76 15.86 16.27Q15.46 16.37 14.86 16.46Q14.26 16.56 13.52 16.64Q12.79 16.73 12.05 16.73Q10.58 16.73 8.4 16.25L8.16 16.18ZM16.25 19.06Q14.02 19.49 11.95 19.46Q9.89 19.44 7.68 19.06Q7.58 19.01 7.5 19.09Q7.42 19.18 7.42 19.3Q7.51 20.42 8.14 21.35Q8.76 22.27 9.77 22.8Q10.78 23.33 12.02 23.33Q13.18 23.33 14.17 22.81Q15.17 22.3 15.79 21.4Q16.42 20.5 16.56 19.39Q16.61 19.22 16.51 19.12Q16.42 19.01 16.25 19.06Z" fill="rgba(0,0,0,0.9019607843137255)"></path></g></svg>