<?xml version="1.0" standalone="no"?>
<svg xmlns="http://www.w3.org/2000/svg" width="24" height="24"><rect width="24" height="24" opacity="0"></rect><g><path d="M8.5 7.06Q7.73 7.06 7.16 7.62Q6.6 8.18 6.6 8.95Q6.6 9.72 7.16 10.28Q7.73 10.85 8.5 10.85Q9.26 10.85 9.83 10.28Q10.39 9.72 10.39 8.95Q10.39 8.18 9.83 7.62Q9.26 7.06 8.5 7.06ZM5.93 1.82Q4.82 1.82 3.88 2.38Q2.93 2.93 2.38 3.88Q1.82 4.82 1.82 5.93L1.82 18.05Q1.82 19.18 2.38 20.12Q2.93 21.07 3.88 21.62Q4.82 22.18 5.93 22.18L18.07 22.18Q19.18 22.18 20.11 21.62Q21.05 21.07 21.6 20.12Q22.15 19.18 22.15 18.05L22.15 5.93Q22.15 4.82 21.6 3.88Q21.05 2.93 20.11 2.38Q19.18 1.82 18.07 1.82L5.93 1.82ZM3.67 5.93Q3.67 4.94 4.32 4.31Q4.97 3.67 5.93 3.67L18.07 3.67Q19.03 3.67 19.68 4.32Q20.33 4.97 20.33 5.93L20.33 13.99L16.82 10.99Q16.1 10.34 15.16 10.31Q14.21 10.27 13.44 10.82L3.67 17.95L3.67 17.69L3.67 5.93ZM5.93 20.33Q5.5 20.33 5.1 20.16Q4.7 19.99 4.44 19.68L14.5 12.34Q14.78 12.14 15.08 12.16Q15.38 12.17 15.62 12.38L20.33 16.39L20.33 18.05Q20.33 19.01 19.68 19.67Q19.03 20.33 18.07 20.33L5.93 20.33Z" fill="rgba(10,89,247,1)"></path></g></svg>