<?xml version="1.0" standalone="no"?>
<svg xmlns="http://www.w3.org/2000/svg" width="25" height="24"><rect width="25" height="24" opacity="0"></rect><g><path d="M8.62 8.98Q8.34 8.78 8.01 8.86Q7.69 8.93 7.46 9.18Q7.23 9.43 7.23 9.79L7.23 14.21Q7.23 14.57 7.46 14.82Q7.69 15.07 8.01 15.14Q8.34 15.22 8.62 15.02L12.54 12.82Q12.82 12.65 12.94 12.32Q13.06 12 12.94 11.68Q12.82 11.35 12.54 11.21L8.62 8.98Z" fill="rgba(10,89,247,1)"></path><path d="M23.72 6.67Q23.29 6.41 22.76 6.4Q22.23 6.38 21.8 6.65L19.11 8.06L19.11 7.06Q19.11 6.24 18.7 5.56Q18.3 4.87 17.61 4.48Q16.93 4.08 16.11 4.08L3.32 4.08Q2.5 4.08 1.82 4.48Q1.14 4.87 0.73 5.56Q0.32 6.24 0.32 7.06L0.32 16.94Q0.32 17.76 0.73 18.44Q1.14 19.13 1.82 19.52Q2.5 19.92 3.32 19.92L16.11 19.92Q16.93 19.92 17.61 19.52Q18.3 19.13 18.7 18.44Q19.11 17.76 19.11 16.94L19.11 15.65L21.73 17.18Q22.18 17.45 22.71 17.45Q23.24 17.45 23.7 17.21Q24.15 16.94 24.42 16.51Q24.68 16.08 24.68 15.55L24.68 8.3Q24.68 7.8 24.42 7.37Q24.15 6.94 23.72 6.67ZM17.26 16.94Q17.26 17.4 16.93 17.74Q16.59 18.07 16.11 18.07L3.32 18.07Q2.84 18.07 2.5 17.74Q2.17 17.4 2.17 16.94L2.17 7.06Q2.17 6.6 2.5 6.26Q2.84 5.93 3.32 5.93L16.11 5.93Q16.59 5.93 16.93 6.26Q17.26 6.6 17.26 7.06L17.26 16.94ZM22.98 15.34Q22.98 15.5 22.87 15.56Q22.76 15.62 22.62 15.58L19.11 13.54L19.11 10.18L22.64 8.26Q22.74 8.18 22.86 8.27Q22.98 8.35 22.98 8.5L22.98 15.34Z" fill="rgba(10,89,247,1)"></path></g></svg>