<?xml version="1.0" standalone="no"?>
<svg xmlns="http://www.w3.org/2000/svg" width="24" height="24"><rect width="24" height="24" opacity="0"></rect><g><path d="M12 23.5Q15.12 23.5 17.76 21.95Q20.4 20.4 21.95 17.76Q23.5 15.12 23.5 12Q23.5 8.88 21.95 6.24Q20.4 3.6 17.76 2.05Q15.12 0.5 12 0.5Q8.88 0.5 6.24 2.05Q3.6 3.6 2.05 6.24Q0.5 8.88 0.5 12Q0.5 15.12 2.05 17.76Q3.6 20.4 6.24 21.95Q8.88 23.5 12 23.5ZM12 3Q14.47 3 16.54 4.2Q18.6 5.4 19.8 7.46Q21 9.53 21 12Q21 14.47 19.8 16.54Q18.6 18.6 16.54 19.8Q14.47 21 12 21Q9.53 21 7.46 19.8Q5.4 18.6 4.2 16.54Q3 14.47 3 12Q3 9.53 4.2 7.46Q5.4 5.4 7.46 4.2Q9.53 3 12 3Z" fill="rgba(10,89,247,1)"></path><path d="M12.02 7.73Q10.87 7.73 9.89 8.3Q8.9 8.88 8.33 9.86Q7.75 10.85 7.75 12Q7.75 13.15 8.33 14.14Q8.9 15.12 9.89 15.7Q10.87 16.27 12.02 16.27Q13.18 16.27 14.16 15.7Q15.14 15.12 15.72 14.14Q16.3 13.15 16.3 12Q16.3 10.85 15.72 9.86Q15.14 8.88 14.16 8.3Q13.18 7.73 12.02 7.73Z" fill="rgba(10,89,247,1)"></path></g></svg>